<?xml version='1.0' encoding='iso-8859-1'?>
<!DOCTYPE svg PUBLIC '-//W3C//DTD SVG 1.1//EN' 'http://www.w3.org/Graphics/SVG/1.1/DTD/svg11.dtd'>
<svg version="1.1" xmlns="http://www.w3.org/2000/svg" viewBox="0 0 297 297" xmlns:xlink="http://www.w3.org/1999/xlink" enable-background="new 0 0 297 297">
  <g>
    <path d="M4.148,135.277h288.705c2.513-1.867,4.147-4.848,4.147-8.219v-35.4c0-19.377-14.346-35.455-32.96-38.17H32.983   C14.357,56.193,0,72.275,0,91.658v35.4C0,130.43,1.635,133.41,4.148,135.277z"/>
    <path d="m245.158,39.121v-7.379c0-15.203-12.356-27.572-27.545-27.572-11.445,0-30.643,5.479-45.647,13.027-10,5.031-17.856,10.678-23.466,16.799-5.609-6.121-13.467-11.77-23.468-16.799-15.007-7.549-34.203-13.027-45.646-13.027-15.188,0-27.544,12.369-27.544,27.572v7.379h193.316z"/>
    <path d="m8.642,149.646v104.596c0,21.277 17.289,38.588 38.542,38.588h202.643c21.247,0 38.531-17.311 38.531-38.588v-104.596h-279.716zm143.74,117.403c-1.183,0.76-2.531,1.139-3.881,1.139-1.349,0-2.698-0.379-3.881-1.139-6.13-3.934-59.894-39.363-59.894-71.42 0-19.984 15.915-36.242 35.478-36.242 11.542,0 21.813,5.658 28.297,14.4 6.482-8.742 16.754-14.4 28.295-14.4 19.563,0 35.478,16.258 35.478,36.242-0.001,32.053-53.762,67.486-59.892,71.42z"/>
    <path d="m176.796,173.756c-11.641,0-21.11,9.813-21.11,21.873 0,3.969-3.217,7.186-7.184,7.186-3.968,0-7.185-3.217-7.185-7.186 0-12.061-9.471-21.873-21.112-21.873-11.639,0-21.108,9.813-21.108,21.873 0,17.164 28.83,42.742 49.405,56.758 20.574-14.018 49.403-39.596 49.403-56.758-0.001-12.061-9.47-21.873-21.109-21.873z"/>
  </g>
</svg>
