<?xml version="1.0" encoding="iso-8859-1"?>
<!-- Generator: Adobe Illustrator 18.0.0, SVG Export Plug-In . SVG Version: 6.00 Build 0)  -->
<!DOCTYPE svg PUBLIC "-//W3C//DTD SVG 1.1//EN" "http://www.w3.org/Graphics/SVG/1.1/DTD/svg11.dtd">
<svg version="1.1" id="Capa_1" xmlns="http://www.w3.org/2000/svg" xmlns:xlink="http://www.w3.org/1999/xlink" x="0px" y="0px"
	 viewBox="0 0 297 297" style="enable-background:new 0 0 297 297;" xml:space="preserve">
<g>
	<path d="M0,55.133c0,5.547,4.513,10.06,10.061,10.06h10.06V45.071h-10.06C4.513,45.071,0,49.584,0,55.133z"/>
	<path d="M248.42,19.114H48.58c-7.704,0-13.97,6.267-13.97,13.97V77.18c0,7.704,6.267,13.971,13.97,13.971h199.84
		c7.704,0,13.97-6.268,13.97-13.971V33.085C262.39,25.381,256.124,19.114,248.42,19.114z"/>
	<path d="M286.939,45.071h-10.06v20.122h10.06c5.548,0,10.061-4.513,10.061-10.06C297,49.584,292.487,45.071,286.939,45.071z"/>
	<path d="M200.415,171.907c5.547,0,10.06-4.513,10.06-10.061c0-5.548-4.513-10.062-10.06-10.062
		c-5.548,0-10.062,4.513-10.062,10.062C190.353,167.394,194.867,171.907,200.415,171.907z"/>
	<path d="M68.539,277.688l76.424-12.736c2.342-0.39,4.733-0.39,7.075,0l76.424,12.736c8.702,1.45,16.624-5.26,16.624-14.082V105.639
		H51.915v157.967C51.915,272.428,59.837,279.138,68.539,277.688z M200.415,137.296c13.536,0,24.548,11.012,24.548,24.549
		c0,13.537-11.012,24.549-24.548,24.549c-13.537,0-24.549-11.012-24.549-24.549C175.866,148.309,186.878,137.296,200.415,137.296z
		 M79.281,154.602h34.61c4.001,0,7.244,3.243,7.244,7.244c0,4.001-3.243,7.244-7.244,7.244h-34.61c-4.001,0-7.244-3.243-7.244-7.244
		C72.037,157.845,75.28,154.602,79.281,154.602z M79.281,189.211h34.61c4.001,0,7.244,3.243,7.244,7.244s-3.243,7.244-7.244,7.244
		h-34.61c-4.001,0-7.244-3.243-7.244-7.244S75.28,189.211,79.281,189.211z M79.281,223.821h34.61c4.001,0,7.244,3.243,7.244,7.244
		c0,4.001-3.243,7.244-7.244,7.244h-34.61c-4.001,0-7.244-3.243-7.244-7.244C72.037,227.064,75.28,223.821,79.281,223.821z"/>
</g>
<g>
</g>
<g>
</g>
<g>
</g>
<g>
</g>
<g>
</g>
<g>
</g>
<g>
</g>
<g>
</g>
<g>
</g>
<g>
</g>
<g>
</g>
<g>
</g>
<g>
</g>
<g>
</g>
<g>
</g>
</svg>
