<?xml version="1.0" encoding="iso-8859-1"?>
<!-- Generator: Adobe Illustrator 19.0.0, SVG Export Plug-In . SVG Version: 6.00 Build 0)  -->
<svg version="1.1" id="Layer_1" xmlns="http://www.w3.org/2000/svg" xmlns:xlink="http://www.w3.org/1999/xlink" x="0px" y="0px"
	 viewBox="0 0 512.014 512.014" style="enable-background:new 0 0 512.014 512.014;" xml:space="preserve">
<g transform="translate(0 -1)">
	<g>
		<g>
			<path d="M511.596,487.499L468.93,274.166c-2.005-9.963-10.752-17.152-20.928-17.152h-82.923c1.707-2.645,3.392-5.355,5.077-8
				l12.16-19.136c15.061-23.808,23.019-51.307,23.019-79.531c0-42.496-18.176-83.115-49.92-111.445
				C323.714,10.592,281.047-2.975,238.551,2.017C172.183,9.569,117.335,63.03,108.162,129.121
				c-5.44,39.168,4.352,78.059,27.541,109.547c4.395,5.952,8.341,12.224,12.523,18.347H64.002c-10.155,0-18.901,7.189-20.907,17.152
				L0.428,487.499c-1.259,6.272,0.363,12.757,4.416,17.707c4.053,4.928,10.091,7.808,16.491,7.808h469.333
				c6.4,0,12.437-2.88,16.512-7.808C511.212,500.257,512.834,493.771,511.596,487.499z M256.002,86.347c35.307,0,64,28.715,64,64
				c0,35.285-28.693,64-64,64c-35.285,0-64-28.715-64-64C192.002,115.062,220.716,86.347,256.002,86.347z M47.362,470.347
				l34.133-170.667h93.845c0.064,0.107,0.128,0.235,0.192,0.341c13.696,23.232,26.411,47.019,38.016,69.547
				c4.907,9.621,9.813,19.2,14.699,28.949l8.683,17.365c3.627,7.232,10.987,11.797,19.072,11.797
				c8.085,0,15.467-4.565,19.093-11.797l18.389-36.779c4.928-9.835,10.176-19.584,15.531-29.291
				c1.536-2.773,3.072-5.568,4.608-8.299c4.544-8.021,9.195-16.021,13.931-23.936c3.669-6.144,7.296-12.139,10.859-17.899h92.117
				l34.133,170.667H47.362z"/>
			<path d="M256.008,171.681c11.776,0,21.333-9.557,21.333-21.333s-9.557-21.333-21.333-21.333
				c-11.776,0-21.333,9.557-21.333,21.333S244.232,171.681,256.008,171.681z"/>
		</g>
	</g>
</g>
<g>
</g>
<g>
</g>
<g>
</g>
<g>
</g>
<g>
</g>
<g>
</g>
<g>
</g>
<g>
</g>
<g>
</g>
<g>
</g>
<g>
</g>
<g>
</g>
<g>
</g>
<g>
</g>
<g>
</g>
</svg>
